<svg width="205" height="54" viewBox="0 0 205 54" fill="none" xmlns="http://www.w3.org/2000/svg">
<path d="M71.896 16.185H77.5841L83.5918 30.8419H83.8474L89.8551 16.185H95.5432V38H91.0694V23.8011H90.8883L85.2428 37.8935H82.1964L76.5509 23.7478H76.3698V38H71.896V16.185ZM106.65 38.3196C104.996 38.3196 103.565 37.968 102.358 37.265C101.158 36.5549 100.231 35.5678 99.5776 34.3038C98.9243 33.0327 98.5976 31.5592 98.5976 29.8833C98.5976 28.1932 98.9243 26.7161 99.5776 25.4521C100.231 24.181 101.158 23.1939 102.358 22.4909C103.565 21.7808 104.996 21.4257 106.65 21.4257C108.305 21.4257 109.732 21.7808 110.932 22.4909C112.14 23.1939 113.07 24.181 113.723 25.4521C114.377 26.7161 114.703 28.1932 114.703 29.8833C114.703 31.5592 114.377 33.0327 113.723 34.3038C113.07 35.5678 112.14 36.5549 110.932 37.265C109.732 37.968 108.305 38.3196 106.65 38.3196ZM106.672 34.8044C107.424 34.8044 108.053 34.5914 108.557 34.1653C109.061 33.7322 109.441 33.1427 109.697 32.3971C109.96 31.6515 110.091 30.8029 110.091 29.8513C110.091 28.8998 109.96 28.0512 109.697 27.3055C109.441 26.5599 109.061 25.9705 108.557 25.5373C108.053 25.1041 107.424 24.8876 106.672 24.8876C105.912 24.8876 105.273 25.1041 104.754 25.5373C104.243 25.9705 103.856 26.5599 103.593 27.3055C103.338 28.0512 103.21 28.8998 103.21 29.8513C103.21 30.8029 103.338 31.6515 103.593 32.3971C103.856 33.1427 104.243 33.7322 104.754 34.1653C105.273 34.5914 105.912 34.8044 106.672 34.8044ZM131.267 26.3043L127.113 26.5599C127.042 26.2048 126.889 25.8853 126.655 25.6012C126.42 25.3101 126.111 25.0793 125.728 24.9089C125.352 24.7313 124.901 24.6426 124.375 24.6426C123.672 24.6426 123.079 24.7917 122.596 25.0899C122.113 25.3811 121.872 25.7717 121.872 26.2616C121.872 26.6522 122.028 26.9824 122.341 27.2523C122.653 27.5221 123.189 27.7387 123.949 27.902L126.91 28.4985C128.501 28.8252 129.687 29.3507 130.468 30.075C131.249 30.7993 131.64 31.7509 131.64 32.9297C131.64 34.002 131.324 34.9429 130.692 35.7525C130.067 36.562 129.208 37.194 128.114 37.6485C127.027 38.0959 125.774 38.3196 124.354 38.3196C122.188 38.3196 120.462 37.8686 119.177 36.9668C117.899 36.0578 117.15 34.8222 116.929 33.2599L121.393 33.0256C121.528 33.686 121.854 34.1902 122.373 34.5381C122.891 34.879 123.555 35.0494 124.364 35.0494C125.16 35.0494 125.799 34.8968 126.282 34.5914C126.772 34.2789 127.02 33.8777 127.027 33.3877C127.02 32.9759 126.846 32.6386 126.505 32.3758C126.165 32.106 125.639 31.9 124.929 31.758L122.096 31.1935C120.498 30.8739 119.308 30.32 118.527 29.5318C117.753 28.7435 117.366 27.7387 117.366 26.5173C117.366 25.4663 117.65 24.5609 118.218 23.8011C118.794 23.0412 119.6 22.4554 120.636 22.0435C121.68 21.6316 122.902 21.4257 124.301 21.4257C126.367 21.4257 127.993 21.8624 129.179 22.7359C130.372 23.6093 131.068 24.7988 131.267 26.3043ZM139.035 28.5411V38H134.497V16.185H138.907V24.5254H139.099C139.468 23.5596 140.064 22.8033 140.888 22.2565C141.712 21.7026 142.745 21.4257 143.988 21.4257C145.124 21.4257 146.115 21.6742 146.96 22.1713C147.812 22.6613 148.472 23.3679 148.941 24.291C149.417 25.2071 149.651 26.3043 149.644 27.5825V38H145.106V28.392C145.113 27.3836 144.858 26.599 144.339 26.038C143.828 25.477 143.111 25.1965 142.188 25.1965C141.57 25.1965 141.023 25.3278 140.547 25.5906C140.079 25.8533 139.709 26.2368 139.44 26.741C139.177 27.2381 139.042 27.8381 139.035 28.5411ZM153.215 38V21.6387H157.753V38H153.215ZM155.495 19.5297C154.82 19.5297 154.241 19.306 153.758 18.8586C153.282 18.4041 153.045 17.8609 153.045 17.2289C153.045 16.604 153.282 16.0678 153.758 15.6204C154.241 15.1659 154.82 14.9387 155.495 14.9387C156.169 14.9387 156.744 15.1659 157.22 15.6204C157.703 16.0678 157.944 16.604 157.944 17.2289C157.944 17.8609 157.703 18.4041 157.22 18.8586C156.744 19.306 156.169 19.5297 155.495 19.5297ZM170.186 21.6387V25.0473H160.088V21.6387H170.186ZM162.4 38V20.4564C162.4 19.2705 162.63 18.2869 163.092 17.5058C163.561 16.7247 164.2 16.1388 165.009 15.7483C165.819 15.3577 166.738 15.1624 167.768 15.1624C168.464 15.1624 169.1 15.2157 169.675 15.3222C170.257 15.4287 170.69 15.5246 170.974 15.6098L170.165 19.0184C169.987 18.9616 169.767 18.9083 169.504 18.8586C169.249 18.8089 168.986 18.784 168.716 18.784C168.049 18.784 167.584 18.9403 167.321 19.2527C167.058 19.5581 166.927 19.9877 166.927 20.5416V38H162.4ZM175.76 44.1355C175.185 44.1355 174.645 44.0893 174.141 43.997C173.644 43.9118 173.232 43.8017 172.905 43.6668L173.928 40.2795C174.46 40.4428 174.94 40.5316 175.366 40.5458C175.799 40.56 176.172 40.4606 176.484 40.2475C176.804 40.0345 177.063 39.6723 177.262 39.1611L177.528 38.4687L171.659 21.6387H176.431L179.818 33.654H179.989L183.408 21.6387H188.212L181.853 39.7682C181.547 40.6488 181.132 41.4157 180.606 42.069C180.088 42.7294 179.431 43.2372 178.636 43.5922C177.84 43.9544 176.882 44.1355 175.76 44.1355Z" fill="white"/>
<g style="mix-blend-mode:lighten">
<path fill-rule="evenodd" clip-rule="evenodd" d="M44.5382 27.0912C46.4225 29.6555 45.5533 33.3458 42.7353 34.7457L23.1493 44.4756C19.2365 46.4194 14.9469 42.64 16.2324 38.3814L24.017 12.5921C25.2157 8.62095 30.2971 7.7117 32.7368 11.0318L44.5382 27.0912Z" fill="#2584FF"/>
</g>
<g style="mix-blend-mode:lighten">
<path fill-rule="evenodd" clip-rule="evenodd" d="M29.463 27.0912C27.5787 29.6555 28.4479 33.3458 31.2659 34.7457L50.8518 44.4756C54.7646 46.4194 59.0543 42.64 57.7688 38.3814L49.9842 12.5921C48.7855 8.62095 43.7041 7.7117 41.2643 11.0318L29.463 27.0912Z" fill="#FF3400"/>
</g>
</svg>
