<svg width="48" height="48" viewBox="0 0 48 48" fill="none" xmlns="http://www.w3.org/2000/svg">
<path d="M32.7251 2.18176V4.36358H37.0888V6.5454H39.2706V8.72722H41.4524V10.909H43.6342V15.2727H45.8161V32.7272H43.6342V37.0909H41.4524V39.2727H39.2706V41.4545H37.0888V43.6363H32.7251V45.8181H15.2706V43.6363H10.907V41.4545H8.72514V39.2727H6.54332V37.0909H4.36151V32.7272H2.17969V15.2727H4.36151V10.909H6.54332V8.72722H8.72514V6.5454H10.907V4.36358H15.2706V2.18176H32.7251ZM30.5433 6.5454H17.4524V8.72722H13.0888V10.909H10.907V13.0909H8.72514V17.4545H6.54332V30.5454H8.72514V34.909H10.907V37.0909H13.0888V39.2727H17.4524V41.4545H30.5433V39.2727H34.907V37.0909H37.0888V34.909H39.2706V30.5454H41.4524V17.4545H39.2706V13.0909H37.0888V10.909H34.907V8.72722H30.5433V6.5454ZM17.4524 13.0909H21.8161V21.8181H26.1797V13.0909H30.5433V34.909H26.1797V26.1818H21.8161V34.909H17.4524V13.0909Z" fill="#FF3400"/>
</svg>
