<svg width="512" height="512" viewBox="0 0 512 512" fill="none" xmlns="http://www.w3.org/2000/svg">
<path d="M486 6H26C14.9375 6 6 14.9375 6 26V486C6 497.063 14.9375 506 26 506H486C497.063 506 506 497.063 506 486V26C506 14.9375 497.063 6 486 6ZM256.687 259.812L136.688 360.437C133.438 363.187 128.5 360.875 128.5 356.625V317.437C128.5 316 129.187 314.563 130.312 313.625L198.938 256L130.312 198.375C129.738 197.921 129.276 197.341 128.961 196.68C128.647 196.019 128.489 195.294 128.5 194.563V155.375C128.5 151.125 133.438 148.812 136.688 151.562L256.687 252.125C259.125 254.125 259.125 257.812 256.687 259.812ZM383.5 356.625C383.5 359.375 381.375 361.625 378.812 361.625H263.188C260.625 361.625 258.5 359.375 258.5 356.625V326.625C258.5 323.875 260.625 321.625 263.188 321.625H378.812C381.375 321.625 383.5 323.875 383.5 326.625V356.625Z" fill="#0CE90C"/>
</svg>
